<svg width="24" height="24" viewBox="0 0 24 24" fill="none" xmlns="http://www.w3.org/2000/svg">
<path d="M13.8284 14.813C12.5924 15.373 11.2474 15.965 9.95743 16.489C8.40543 17.12 6.93543 17.65 5.84743 17.909C5.77643 17.926 5.70543 17.939 5.63343 17.949C3.78343 18.262 1.84643 16.874 1.50243 14.972L1.39143 11.328C1.38243 11.263 1.45043 11.259 1.49843 11.306C2.72043 12.543 4.11643 13.651 5.24343 13.498C5.54543 13.457 5.67043 13.404 6.01443 13.322C7.28043 13.024 8.80843 12.46 10.3344 11.809C10.3414 11.815 10.3494 11.82 10.3564 11.826C11.6854 12.824 12.9394 13.866 13.8284 14.812V14.813Z" fill="#FBBC05"/>
<path d="M10.362 11.7989C10.36 11.8059 10.358 11.8159 10.356 11.8259C10.349 11.8199 10.341 11.8149 10.334 11.8089C10.343 11.8039 10.353 11.8029 10.362 11.7979V11.7989Z" fill="#515C6B"/>
<path d="M13.309 20.3669C13.287 20.5559 13.228 20.6549 13.043 20.7499C13.043 20.7499 8.21597 23.1329 6.71697 23.5009C4.76697 23.9779 2.58897 22.5169 2.14797 20.6089C1.95397 19.7689 1.68597 17.3449 1.68597 17.3449C1.67997 17.3029 1.73897 17.2939 1.75097 17.3359C2.24997 18.9429 4.03497 19.5349 5.91297 19.0939C5.98997 19.0759 6.07097 19.0549 6.15697 19.0329C7.13497 18.7689 8.69397 18.1899 9.89097 17.7259C10.851 17.3549 13.226 16.3719 13.226 16.3719C13.405 16.3399 13.574 16.4589 13.61 16.6379L13.308 20.3679L13.309 20.3669Z" fill="#FBBC05"/>
<path d="M14.6896 4.3099C13.0276 4.8439 12.0276 5.4759 11.5406 6.3719C11.3956 6.6379 11.2996 6.9529 11.2096 7.3069C10.8886 8.5649 10.5616 10.1539 10.3636 11.7989C10.3546 11.8039 10.3446 11.8049 10.3356 11.8099C8.80963 12.4609 7.28163 13.0249 6.01562 13.3229C6.14863 11.9729 6.30962 10.5129 6.50162 9.1339C6.73062 7.4739 7.00763 5.9379 7.32563 4.8639C7.34563 4.7949 7.36663 4.7279 7.39363 4.6649C8.04363 2.8989 10.1526 2.0099 11.9776 2.6619L14.7246 4.2019C14.7856 4.2299 14.7556 4.2889 14.6896 4.3099Z" fill="#4285F4"/>
<path d="M10.362 11.7989C10.36 11.8059 10.358 11.8159 10.356 11.8259C10.349 11.8199 10.341 11.8149 10.334 11.8089C10.343 11.8039 10.353 11.8029 10.362 11.7979V11.7989Z" fill="#4A54FF"/>
<path d="M9.47542 1.7959C7.84242 1.6019 6.81242 2.6459 6.26342 4.3309C6.23842 4.4069 6.21842 4.4869 6.19442 4.5739C5.93242 5.5489 5.65442 7.1929 5.45942 8.4579C5.30342 9.4749 5.05142 12.1589 5.05142 12.1589C4.98942 12.3309 4.79842 12.4179 4.63042 12.3579L1.68342 9.9749C1.54342 9.8659 1.48242 9.7489 1.48442 9.5539C1.48442 9.5539 1.61342 4.3069 2.04742 2.8249C2.60842 0.894897 4.69042 0.0408974 6.69442 0.622897C7.46142 0.845897 9.50042 1.7329 9.50042 1.7329C9.53942 1.7509 9.51842 1.8009 9.47642 1.7959H9.47542Z" fill="#4285F4"/>
<path d="M17.9264 17.8721L14.6294 19.9751C14.5744 20.0131 14.5464 19.9571 14.5544 19.8921C14.8594 17.5491 15.1134 16.4681 14.3264 15.3711C14.1504 15.1251 14.0734 15.0701 13.8314 14.8121C12.9424 13.8651 11.6884 12.8241 10.3594 11.8261C10.3614 11.8161 10.3634 11.8051 10.3654 11.7991C10.5634 10.1541 10.8404 8.55013 11.2114 7.30713C12.3134 8.09113 13.5014 8.96213 14.5964 9.82013C15.9234 10.8521 17.1164 11.8591 17.8864 12.6691C17.9374 12.7221 17.9834 12.7741 18.0254 12.8291C19.2824 14.4841 18.9374 17.0621 17.9264 17.8731V17.8721Z" fill="#34A853"/>
<path d="M10.3639 11.7989C10.3619 11.8059 10.3599 11.8159 10.3579 11.8259C10.3509 11.8199 10.3429 11.8149 10.3359 11.8089C10.3449 11.8039 10.3549 11.8029 10.3639 11.7979V11.7989Z" fill="#40DE5A"/>
<path d="M21.8741 14.2441C21.2861 14.8111 19.7691 16.1811 19.7691 16.1811C19.7331 16.2061 19.7031 16.1631 19.7251 16.1271C20.2141 15.3361 20.2361 13.3941 18.8751 12.0161C18.8221 11.9621 18.7661 11.9021 18.7031 11.8371C17.9871 11.1221 16.6981 10.0551 15.7001 9.25407C14.8971 8.61107 12.8231 7.19907 12.8231 7.19907C12.7071 7.05907 12.7241 6.85307 12.8611 6.73407L16.0081 5.14907C16.1801 5.09607 16.3111 5.08907 16.4731 5.18707C16.4731 5.18707 21.2231 8.00107 22.2911 9.11607C23.6801 10.5681 23.3531 12.8171 21.8741 14.2441Z" fill="#34A853"/>
</svg>
